<?xml version="1.0" encoding="UTF-8" standalone="no"?>
<!-- Created with Inkscape (http://www.inkscape.org/) -->

<svg
   xmlns:dc="http://purl.org/dc/elements/1.1/"
   xmlns:cc="http://creativecommons.org/ns#"
   xmlns:rdf="http://www.w3.org/1999/02/22-rdf-syntax-ns#"
   xmlns:svg="http://www.w3.org/2000/svg"
   xmlns="http://www.w3.org/2000/svg"
   xmlns:sodipodi="http://sodipodi.sourceforge.net/DTD/sodipodi-0.dtd"
   xmlns:inkscape="http://www.inkscape.org/namespaces/inkscape"
   width="280mm"
   height="280mm"
   viewBox="0 0 280 280"
   version="1.1"
   id="svg8"
   inkscape:version="0.92.4 (5da689c313, 2019-01-14)"
   sodipodi:docname="main.svg">
  <defs
     id="defs2" />
  <sodipodi:namedview
     id="base"
     pagecolor="#898989"
     bordercolor="#666666"
     borderopacity="1.0"
     inkscape:pageopacity="0"
     inkscape:pageshadow="2"
     inkscape:zoom="1"
     inkscape:cx="-43.224362"
     inkscape:cy="161.12481"
     inkscape:document-units="mm"
     inkscape:current-layer="layer1"
     showgrid="false"
     showborder="false"
     showguides="true"
     inkscape:guide-bbox="true"
     inkscape:snap-center="true"
     inkscape:object-paths="true"
     inkscape:snap-intersection-paths="true"
     inkscape:snap-object-midpoints="true"
     inkscape:window-width="1080"
     inkscape:window-height="1856"
     inkscape:window-x="0"
     inkscape:window-y="27"
     inkscape:window-maximized="1"
     inkscape:snap-smooth-nodes="true">
    <sodipodi:guide
       position="0,0"
       orientation="1,0"
       id="guide998"
       inkscape:locked="false"
       inkscape:label=""
       inkscape:color="rgb(0,0,255)" />
    <sodipodi:guide
       position="0,0"
       orientation="0,1"
       id="guide1000"
       inkscape:locked="false"
       inkscape:label=""
       inkscape:color="rgb(0,0,255)" />
  </sodipodi:namedview>
  <metadata
     id="metadata5">
    <rdf:RDF>
      <cc:Work
         rdf:about="">
        <dc:format>image/svg+xml</dc:format>
        <dc:type
           rdf:resource="http://purl.org/dc/dcmitype/StillImage" />
        <dc:title></dc:title>
      </cc:Work>
    </rdf:RDF>
  </metadata>
  <g
     inkscape:label="Components"
     inkscape:groupmode="layer"
     id="layer1"
     style="display:inline"
     transform="translate(0,-17)">
    <circle
       style="fill:#939393;fill-opacity:1;stroke:none;stroke-width:2;stroke-linecap:butt;stroke-linejoin:bevel;stroke-miterlimit:4;stroke-dasharray:none;stroke-dashoffset:0;stroke-opacity:1"
       id="path1002"
       cx="0"
       cy="297"
       r="110" />
    <path
       style="fill:#000000;fill-opacity:1;stroke:none;stroke-width:1.00157475;stroke-miterlimit:4;stroke-dasharray:4.00629902, 1.00157473;stroke-dashoffset:0;stroke-opacity:1"
       d="M 0 873.99805 A 13.228346 13.228346 0 0 0 -2.8144531 874.31641 C -102.13565 875.80994 -182.43915 956.10467 -183.94922 1055.4219 A 13.228346 13.228346 0 0 0 -184.26953 1058.2676 A 13.228346 13.228346 0 0 0 -183.95117 1061.0859 C -182.4556 1160.4047 -102.16266 1240.7057 -2.8476562 1242.2168 A 13.228346 13.228346 0 0 0 0 1242.5371 A 13.228346 13.228346 0 0 0 2.8183594 1242.2188 C 102.1371 1240.7232 182.43814 1160.4302 183.94922 1061.1152 A 13.228346 13.228346 0 0 0 184.26953 1058.2676 A 13.228346 13.228346 0 0 0 183.95117 1055.4492 C 182.45559 956.13047 102.16266 875.82943 2.8476562 874.31836 A 13.228346 13.228346 0 0 0 0 873.99805 z M -12.255859 882.27148 A 13.228346 13.228346 0 0 0 -13.228516 887.22656 A 13.228346 13.228346 0 0 0 0 900.45508 A 13.228346 13.228346 0 0 0 13.228516 887.22656 A 13.228346 13.228346 0 0 0 12.257812 882.27148 C 99.963328 888.284 169.98452 958.30594 175.99609 1046.0117 A 13.228346 13.228346 0 0 0 171.04102 1045.0391 A 13.228346 13.228346 0 0 0 157.81445 1058.2676 A 13.228346 13.228346 0 0 0 171.04102 1071.4961 A 13.228346 13.228346 0 0 0 175.99609 1070.5254 C 169.98358 1158.2309 99.961653 1228.2541 12.255859 1234.2656 A 13.228346 13.228346 0 0 0 13.228516 1229.3086 A 13.228346 13.228346 0 0 0 0 1216.082 A 13.228346 13.228346 0 0 0 -13.228516 1229.3086 A 13.228346 13.228346 0 0 0 -12.257812 1234.2656 C -99.963345 1228.2531 -169.98452 1158.2292 -175.99609 1070.5234 A 13.228346 13.228346 0 0 0 -171.04102 1071.4961 A 13.228346 13.228346 0 0 0 -157.81445 1058.2676 A 13.228346 13.228346 0 0 0 -171.04102 1045.0391 A 13.228346 13.228346 0 0 0 -175.99609 1046.0098 C -169.98358 958.30425 -99.961636 888.28306 -12.255859 882.27148 z "
       transform="matrix(0.26458333,0,0,0.26458333,0,17)"
       id="path921" />
  </g>
  <g
     inkscape:groupmode="layer"
     id="layer2"
     inkscape:label="frame 01"
     style="display:inline;opacity:1"
     transform="translate(0,-17)" />
</svg>
